<?xml version="1.0" standalone="no"?><!DOCTYPE svg PUBLIC "-//W3C//DTD SVG 1.1//EN" "http://www.w3.org/Graphics/SVG/1.1/DTD/svg11.dtd"><svg t="1626230229904" class="icon" viewBox="0 0 1024 1024" version="1.1" xmlns="http://www.w3.org/2000/svg" p-id="4363" xmlns:xlink="http://www.w3.org/1999/xlink" width="1024" height="1024"><defs><style type="text/css"></style></defs><path d="M512 32C246.4 32 32 246.4 32 512s214.4 480 480 480 480-214.4 480-480S777.6 32 512 32m201.6 681.6c-12.8 12.8-35.2 12.8-48 0L512 560 358.4 713.6c-12.8 12.8-35.2 12.8-48 0s-12.8-35.2 0-48L464 512 310.4 358.4c-12.8-12.8-12.8-35.2 0-48s35.2-12.8 48 0L512 464l153.6-153.6c12.8-12.8 35.2-12.8 48 0s12.8 35.2 0 48L560 512l153.6 153.6c16 12.8 16 35.2 0 48z" fill="#C8102E" p-id="4364"></path><path d="M713.6 713.6c-12.8 12.8-35.2 12.8-48 0L512 560 358.4 713.6c-12.8 12.8-35.2 12.8-48 0s-12.8-35.2 0-48L464 512 310.4 358.4c-12.8-12.8-12.8-35.2 0-48s35.2-12.8 48 0L512 464l153.6-153.6c12.8-12.8 35.2-12.8 48 0s12.8 35.2 0 48L560 512l153.6 153.6c16 12.8 16 35.2 0 48z" fill="#FFFFFF" p-id="4365"></path></svg>