<?xml version="1.0" encoding="utf-8"?>
<!-- Generator: Adobe Illustrator 19.0.0, SVG Export Plug-In . SVG Version: 6.00 Build 0)  -->
<svg version="1.1" id="图层_1" xmlns="http://www.w3.org/2000/svg" xmlns:xlink="http://www.w3.org/1999/xlink" x="0px" y="0px"
	 viewBox="-112 39.7 286.6 74.4" style="enable-background:new -112 39.7 286.6 74.4;" xml:space="preserve">
<style type="text/css">
	.st0{fill:#286FB7;}
</style>
<g id="XMLID_23_">
	<g>
		<path id="XMLID_443_" class="st0" d="M-88.5,52.6l-0.4-0.6l-1.6,1l-0.6-1l1.4-0.9l-0.3-0.6l-1.4,0.9l-0.5-0.8l1.6-1l-0.4-0.6
			l-2.1,1.3l2.1,3.6L-88.5,52.6z M-84.8,48c0.1,0.1,0.3,0.2,0.4,0.3c0.2,0.1,0.4,0.1,0.7,0.1c0.3,0,0.6,0,0.6,0c0.1,0,0.2,0,0.2,0.1
			c0.1,0.1,0.1,0.1,0.1,0.2c0.1,0.2,0,0.3,0,0.5c-0.1,0.1-0.2,0.2-0.4,0.3c-0.4,0.1-0.7-0.1-0.9-0.6l-0.6,0.3c0.4,0.9,1,1.2,1.7,1
			c0.4-0.1,0.7-0.4,0.9-0.7c0.1-0.3,0.2-0.6,0-1c-0.1-0.2-0.2-0.4-0.3-0.6c-0.1-0.1-0.3-0.3-0.5-0.3c-0.2-0.1-0.4-0.1-0.8-0.1
			c-0.3,0-0.5,0-0.7-0.1c-0.1-0.1-0.2-0.1-0.2-0.2c0-0.1,0-0.2,0.1-0.3s0.3-0.2,0.4-0.2c0.2-0.1,0.3-0.1,0.4,0
			c0.1,0.1,0.2,0.2,0.3,0.4l0.6-0.2c-0.1-0.4-0.3-0.7-0.6-0.8c-0.3-0.1-0.6-0.2-1,0c-0.3,0.1-0.5,0.2-0.6,0.3
			c-0.1,0.1-0.2,0.3-0.3,0.5c0,0.2,0,0.4,0,0.6C-85,47.7-84.9,47.9-84.8,48z M-87.7,52l0.3-0.1l0.4-0.2l-0.4-0.8l-0.4-0.8V50l0,0
			h0.1c0.1-0.1,0.2-0.1,0.3-0.1h0.1c0.1,0,0.2,0,0.3,0.1c0.1,0.1,0.3,0.2,0.6,0.4l0.8,0.6l0.7-0.4l-0.7-0.6
			c-0.3-0.2-0.5-0.4-0.6-0.4c-0.1-0.1-0.3-0.1-0.5-0.2c0.2-0.2,0.4-0.4,0.4-0.6c0.1-0.3,0-0.5-0.1-0.8c-0.1-0.2-0.2-0.4-0.4-0.5
			s-0.3-0.2-0.5-0.2l0,0c-0.1,0-0.2,0-0.4,0.1c-0.1,0-0.2,0.1-0.4,0.2l-1.3,0.6l1.6,3.6L-87.7,52z M-88.5,48.5l0.5-0.2
			c0.1-0.1,0.2-0.1,0.3-0.1c0.1,0,0.2-0.1,0.2-0.1c0.1,0,0.1,0,0.1,0c0.1,0,0.1,0,0.1,0.1c0.1,0,0.1,0.1,0.2,0.3
			c0.1,0,0.1,0.2,0.1,0.2c0,0.1-0.1,0.2-0.1,0.3c0,0-0.1,0.1-0.3,0.2c-0.1,0-0.1,0.1-0.2,0.1l-0.1,0.1l-0.3,0.2L-88.5,48.5z
			 M-44.2,77.1c-0.3-0.2-0.7-0.2-1.2-0.3l0,0c-0.7,0-1.2,0.1-1.6,0.4c-0.4,0.3-0.5,0.7-0.5,1.2s0.1,0.9,0.5,1.2
			c0.4,0.3,0.9,0.5,1.6,0.5l0,0c0.7,0,1.2-0.1,1.6-0.4s0.6-0.7,0.6-1.2c0-0.3-0.1-0.6-0.2-0.9C-43.7,77.5-43.9,77.3-44.2,77.1z
			 M-44.4,79.2c-0.2,0.2-0.6,0.3-1.1,0.2c-0.5,0-0.8-0.1-1.1-0.3c-0.2-0.2-0.3-0.4-0.3-0.7c0-0.3,0.1-0.5,0.4-0.7
			c0.2-0.2,0.6-0.3,1-0.2l0,0c0.5,0,0.8,0.1,1.1,0.3c0.2,0.2,0.3,0.4,0.3,0.7C-44,78.8-44.2,79.1-44.4,79.2z M-99.6,63.4
			c0.2,0,0.5,0,0.7-0.1c0.2-0.1,0.4-0.3,0.6-0.6c0.2-0.3,0.3-0.6,0.2-0.8c0-0.3-0.1-0.5-0.3-0.7c-0.2-0.2-0.5-0.4-1-0.7l-1.8-1.2
			l-0.3,0.6l1.9,1.2c0.3,0.2,0.6,0.4,0.7,0.5c0.1,0.1,0.1,0.2,0.1,0.3s0,0.3-0.1,0.4c-0.1,0.2-0.2,0.3-0.4,0.3c-0.1,0-0.3,0-0.5,0
			c-0.1,0-0.3-0.2-0.6-0.3l-1.9-1.2l-0.4,0.6l1.9,1.2C-100.3,63.2-99.9,63.4-99.6,63.4z M-92.2,55.2l-1.7-4.1l-0.6,0.5l1.3,3
			l-2.6-1.9l-0.6,0.5l3.5,2.5L-92.2,55.2z M-96.8,60l-2.1-1.8l2.9,0.7l0.4-0.5l-3-2.7l-0.4,0.5l2.1,1.8l-3-0.7l-0.4,0.5l3.2,2.7
			L-96.8,60z M-94.2,57l-2.9-3l-0.5,0.5l2.9,3L-94.2,57z M-74.4,50.1L-74.4,50.1c-0.1,0-0.3,0-0.4,0c-0.1,0-0.2,0-0.4,0l0,0
			c-0.8,0-1.5,0-2.3,0.1v1.9c-11.8,1.1-21.2,10.4-22.4,22.1h4.7c1.2-9.2,8.5-16.4,17.8-17.5V57c-0.1,1.6-1.1,3-2.5,3.5
			c-6.2,1.8-11,7.1-12,13.6h4.5C-86.2,68.3-81,64-74.8,64c4.7,0,8.7,2.5,11,6.2c0,0,0,0.1,0.1,0.1c0.1,0.2,0.3,0.4,0.4,0.7
			c0.1,0.2,0.2,0.5,0.4,0.8c0,0.1,0.1,0.1,0.1,0.2c0.3,0.7,0.6,1.5,0.7,2.2h4.5c-1-6.5-5.8-11.8-12-13.6c-1.4-0.6-2.4-1.9-2.5-3.5
			v-0.2c0,0,0,0,0-0.1c9.2,1,16.6,8.3,17.8,17.5h4.7c-1.2-11.7-10.7-21-22.4-22.1v-1.9C-72.9,50.1-73.7,50.1-74.4,50.1z M-54.3,58.2
			l0.5-0.5l-1.4-1.3l0.8-0.8l1.2,1.2l0.5-0.5L-54,55l0.6-0.7l1.3,1.3l0.5-0.5l-1.8-1.8l-2.8,3.1L-54.3,58.2z M-53.2,59
			c-0.1,0.4,0,0.8,0.2,1.2c0.2,0.3,0.5,0.5,0.8,0.5c0.3,0.1,0.7,0,1.1-0.2l-0.2-0.7c-0.3,0.1-0.5,0.2-0.7,0.2s-0.3-0.1-0.4-0.3
			c-0.1-0.2-0.2-0.4-0.1-0.7c0.1-0.3,0.3-0.5,0.7-0.9c0.4-0.3,0.7-0.5,1-0.5s0.5,0.1,0.6,0.3c0.1,0.1,0.1,0.3,0.1,0.5
			s-0.1,0.4-0.2,0.5l0.6,0.4c0.2-0.3,0.4-0.6,0.4-0.8c0.1-0.4,0-0.7-0.3-1c-0.3-0.4-0.6-0.6-1.1-0.6s-1,0.2-1.6,0.6
			C-52.8,58.1-53.1,58.6-53.2,59z M-80.1,49.3l-0.9-4.1l-0.7,0.1l0.9,4.1L-80.1,49.3z M-101.5,70.4l-2.6-0.8l3-0.5l0.2-0.7l-3.9-1.2
			l-0.2,0.6l2.6,0.8l-3,0.5l-0.2,0.7l3.9,1.2L-101.5,70.4z M-51.2,62.8l1.6-0.9l0.6,1.2l-1.6,0.9l0.3,0.6l3.6-2.1l-0.3-0.6l-1.4,0.8
			l-0.6-1.1l1.4-0.8l-0.3-0.6l-3.6,2.1L-51.2,62.8z M-63.4,49.4l1.3,0.6l0.3-0.7l-1.3-0.6l0.4-0.9l1.5,0.7l0.3-0.7l-2.1-1l-1.7,3.8
			l0.6,0.3L-63.4,49.4z M-57.6,55.1l2.1-2.7l0.8,0.6l0.4-0.6l-2.1-1.7l-0.4,0.6l0.8,0.6l-2.1,2.8L-57.6,55.1z M-78.7,45.6l0.4,3.5
			l0.7-0.1l-0.4-3.5l1-0.1l-0.1-0.7l-2.6,0.3v0.7L-78.7,45.6z M-74.9,48.8h0.7l0.1-1.8l1.3-2.4h-0.8l-0.8,1.7l-0.8-1.7H-76l1.2,2.5
			L-74.9,48.8z M-67.2,50c0.2,0.1,0.4,0.1,0.6,0.1c0.2,0,0.5-0.1,0.7-0.2c0.4-0.3,0.7-0.8,0.9-1.4c0.2-0.7,0.2-1.2,0-1.7
			s-0.5-0.8-1-0.9c-0.2-0.2-0.4-0.2-0.6-0.2c-0.1,0-0.2,0-0.3,0.1c-0.3,0.1-0.5,0.3-0.8,0.5c-0.2,0.3-0.4,0.6-0.6,1.1
			c-0.2,0.7-0.2,1.2,0,1.7C-68,49.6-67.7,49.8-67.2,50z M-67.5,47.6c0.1-0.5,0.3-0.8,0.6-1c0.1-0.1,0.2-0.1,0.3-0.2
			c0.1,0,0.3,0,0.4,0c0.3,0.1,0.5,0.3,0.5,0.5c0.1,0.3,0.1,0.7-0.1,1.1c-0.1,0.5-0.3,0.8-0.6,1c-0.1,0.1-0.2,0.1-0.3,0.2
			c-0.1,0-0.3,0-0.4,0c-0.3-0.1-0.4-0.3-0.5-0.5S-67.7,48.1-67.5,47.6z M-49.5,66.3l2.5-1l-2,2.3l0.2,0.7l3.4-1.4l0.4-0.2l-0.2-0.6
			l-0.2,0.1l-2.4,1l2.1-2.4l-0.2-0.6l-3.8,1.5L-49.5,66.3z M-45.4,68.7c-0.3-0.1-0.7,0-1.2,0.1c-0.6,0.2-1.1,0.4-1.4,0.9
			c-0.3,0.4-0.3,0.8-0.2,1.3s0.4,0.8,0.8,1c0.5,0.2,1,0.3,1.7,0.1c0.1,0,0.3-0.1,0.4-0.1c0.5-0.2,0.8-0.4,1-0.7
			c0.3-0.4,0.4-0.8,0.3-1.3c-0.1-0.3-0.2-0.6-0.4-0.8C-44.7,68.9-45,68.8-45.4,68.7L-45.4,68.7z M-44.8,70.1c0.1,0.3,0,0.5-0.2,0.7
			c-0.1,0.1-0.2,0.2-0.4,0.3c-0.1,0.1-0.3,0.1-0.5,0.2c-0.5,0.1-0.8,0.1-1.1,0c-0.3-0.1-0.4-0.3-0.5-0.6c-0.1-0.3,0-0.5,0.2-0.7
			c0.2-0.2,0.5-0.4,1-0.5c0.4-0.1,0.7-0.1,1,0h0.1C-45,69.6-44.8,69.8-44.8,70.1z M-47.6,73.6l0.2,2.4l0.7-0.1l-0.1-1.7l1.5-0.1
			l1.9-0.1v-0.7l-1.8,0.2L-47.6,73.6z M-51.6,98.6c-0.1,0-0.3,0.1-0.4,0.1c-0.1,0-0.4,0.3-0.6,0.5c-0.2,0.2-0.5-0.1-0.5-0.2
			c-0.1-0.1,0-0.3,0-0.3c0-0.1,0-0.2,0-0.4c0-0.2-0.3-0.2-0.3-0.2h-0.1c0,0-0.1,0.1-0.2,0.1l-0.2,0.2l-0.1,0.2l-0.1,0.2h0.1
			c0.1,0.1,0.2,0,0.3,0s0.1,0,0.2,0.1c0.1,0.1,0.1,0.3,0.1,0.3v0.2c0.1,0.1,0.1,0.1,0.3,0.1s0.1,0.1,0.1,0.1v0.1
			c-0.1,0.1-0.4,0.5-0.5,0.6s-0.3,0.3-0.3,0.4S-54,101-54,101s-0.1,0.2-0.2,0.3c-0.1,0.1-0.1,0.1-0.1,0.1c0,0.1,0.1,0,0.2,0
			c0.1,0,0.3-0.2,0.4-0.4c0.1-0.1,0.3-0.3,0.3-0.5c0.1-0.1,0.3-0.4,0.4-0.5c0.1-0.1,0.1-0.1,0.1-0.1c0.1,0,0.1,0.1,0.1,0.1l0.2,0.4
			l0.1,0.3v0.2c0,0.1-0.1,0.3-0.1,0.4c0,0,0,0.1,0,0.2c0,0.1-0.1,0.1-0.1,0.1h-0.1l-0.2-0.1h-0.1v0.2c0.1,0.1,0.2,0.2,0.2,0.2h0.3
			c0.1,0,0.2-0.1,0.4-0.3c0.2-0.2,0.1-0.4,0.1-0.5c0-0.2,0-0.5,0-0.5c0-0.4-0.3-0.8-0.3-0.8v-0.1c0,0,0.1-0.1,0.2-0.2
			c0.2-0.2,0.2-0.1,0.3-0.1c0,0,0.2-0.1,0.2-0.2c0.1-0.1,0.2-0.3,0.2-0.4C-51.4,98.6-51.5,98.6-51.6,98.6z M-55.2,96.8
			C-55.2,96.8-55.3,96.8-55.2,96.8l-0.2-0.2h-0.1h-0.2h-0.1c0,0-0.2,0.1-0.2,0.2c0,0,0,0.2,0,0.3s0.1,0.2,0.1,0.3l0.2,0.2
			c0.1,0,0.1,0,0.2,0h0.2h0.1l0.1-0.1c0,0,0.1,0,0.2,0h0.2c0,0,0-0.1,0.1-0.1c0-0.1,0-0.3,0-0.4c0-0.1,0.1-0.2,0.1-0.2l0.1-0.1
			l0.1-0.1c0,0,0.1-0.4,0.1-0.5c0,0,0.1-0.3,0-0.4v-0.1l-0.1-0.2h-0.1l-0.2-0.1h-0.1c0,0-0.2,0-0.2,0.1c-0.1,0-0.1,0.1-0.2,0.1
			c0,0-0.1,0.2,0,0.2c0,0.1,0.2,0.3,0.2,0.4c0,0.1,0.1,0.5,0,0.7c0,0,0,0.1,0,0.2C-55.1,96.7-55.1,96.8-55.2,96.8z M-79.8,86.9v-4.5
			h-0.7c-0.1,0.3-0.3,0.5-0.5,0.7c-0.3,0.2-0.5,0.3-0.7,0.4v0.8c0.4-0.1,0.8-0.4,1.1-0.7v3.3H-79.8z M-55.4,99.9
			c0,0-0.1-0.1-0.1-0.2l-0.1-0.1l0,0c0,0-0.1,0.2-0.1,0.3s0,0.5,0.2,0.9c0.3,0.4,0.4,0.3,0.4,0.2c0.1-0.1,0.3-0.2,0.3-0.4
			c0,0-0.2-0.2-0.3-0.3C-55.1,100.2-55.3,99.9-55.4,99.9z M-76.9,86.3L-76.9,86.3c-0.2,0-0.3,0-0.4-0.1c-0.1-0.1-0.1-0.2-0.2-0.4
			l-0.8,0.1c0.1,0.4,0.2,0.6,0.4,0.8c0.2,0.2,0.5,0.3,0.9,0.3h0.1c0.4,0,0.8-0.2,1.1-0.5c0.3-0.4,0.5-1,0.5-1.8
			c0-0.8-0.1-1.4-0.4-1.7c-0.3-0.4-0.7-0.5-1.1-0.5c-0.4,0-0.8,0.1-1,0.4c-0.3,0.3-0.4,0.7-0.4,1.1c0,0.4,0.1,0.8,0.4,1.1
			c0.3,0.3,0.6,0.4,0.9,0.4c0.1,0,0.1,0,0.1,0c0.3,0,0.5-0.1,0.7-0.4c0,0.5-0.1,0.9-0.2,1C-76.6,86.2-76.7,86.3-76.9,86.3z
			 M-76.5,84.6c-0.1,0.1-0.3,0.2-0.4,0.2c-0.2,0-0.3-0.1-0.4-0.2c-0.1-0.1-0.2-0.3-0.2-0.6c0-0.3,0.1-0.5,0.2-0.6
			c0.1-0.1,0.2-0.2,0.4-0.2l0,0c0.1,0,0.3,0.1,0.4,0.2c0.1,0.1,0.2,0.4,0.2,0.7C-76.3,84.2-76.4,84.4-76.5,84.6z M-53.8,97.2
			c0,0,0.2-0.2,0.4-0.3s0.2,0,0.2,0l0.1,0.1v0.1v0.1v0.1c0,0-0.1,0.2-0.1,0.3v0.2l0.1-0.2l0.1-0.2l0.2-0.2c0,0,0.1-0.1,0.1-0.2
			s0-0.3,0-0.3s-0.1-0.1-0.2-0.2c-0.1-0.1-0.2-0.1-0.2-0.1c-0.6-0.1-1.2,0.6-1.5,1.1c-0.3,0.4-0.7,1.5-0.7,1.6s-0.1,0.3-0.1,0.3v0.1
			c0.1,0.1,0.2,0,0.3-0.2c0.1-0.2,0.1-0.2,0.5-1C-54.1,97.5-53.8,97.3-53.8,97.2z M-72.2,96.9v-3.3c6.7-0.9,12.2-5.7,14-12.1h-4.7
			c-1.9,4.8-6.5,8.2-12,8.2s-10.1-3.4-12-8.2h-4.6c1.8,6.3,7.3,11.2,14,12.1v3.3c-8.5-1-15.4-7.2-17.4-15.4h-4.7
			c2.2,11.5,12.3,20.2,24.4,20.2l0,0c0.1,0,0.2,0,0.4,0c0.1,0,0.2,0,0.4,0l0,0c12.1,0,22.2-8.7,24.4-20.1h-4.7
			C-56.7,89.7-63.7,96-72.2,96.9z M-47.2,86.6l-1.7-0.5l-0.2,0.6l1.6,0.5l1.9,2l0.1-0.2l0.2-0.6l-0.2-0.2l-1.1-1.1l1.1-0.2l0.6-0.1
			l0.2-0.8l-0.9,0.2L-47.2,86.6z M-72.7,82.4l-0.6,0.9l-1.3,1.9V86h1.8v0.9h0.8V86h0.5v-0.8H-72v-2.9L-72.7,82.4L-72.7,82.4z
			 M-72.8,85.3h-1l0.5-0.8l0.5-0.8V85.3z M-44.6,81.8c-0.2-0.2-0.5-0.3-0.9-0.4c-0.1,0-0.1,0-0.2-0.1c-0.4-0.1-0.8-0.1-1.2,0
			c-0.3,0.1-0.6,0.2-0.8,0.5c-0.2,0.2-0.3,0.5-0.4,0.8c0,0.3,0,0.6,0,0.9c0.1,0.3,0.2,0.5,0.3,0.7l1.6,0.3l0.3-1.5l-0.7-0.1
			l-0.1,0.8l-0.5-0.1c-0.1-0.1-0.1-0.3-0.2-0.4c0-0.2-0.1-0.3,0-0.4c0.1-0.3,0.2-0.5,0.5-0.6s0.7-0.2,1.2-0.1c0.1,0,0.2,0,0.3,0.1
			c0.3,0.1,0.5,0.2,0.7,0.4c0.2,0.2,0.2,0.5,0.2,0.8c0,0.2-0.1,0.3-0.3,0.5c-0.1,0.1-0.3,0.2-0.5,0.2v0.7c0.4,0,0.7-0.1,1-0.3
			c0.3-0.2,0.4-0.5,0.5-0.9c0.1-0.3,0-0.6-0.1-0.9C-44.1,82.3-44.3,82-44.6,81.8z M-102.2,75.3l0.1-0.7l-0.9-0.5l0.2-1.4l0.9-0.2
			l0.1-0.8l-2.5,0.5l-1.8,0.5l-0.1,0.7l1.8,0.8L-102.2,75.3z M-104.4,73.1l0.8-0.1l-0.1,0.9l-0.7-0.3l-0.8-0.4L-104.4,73.1z
			 M-74.2,77.7v-3.6h4.9l1.7-3.4l-3.7-0.6l-3,3.7v-1.1l1.7-3.4l-2.3-3l-2.3,3l1.7,3.4v1.1l-3-3.7l-3.7,0.6l1.7,3.4h4.9v3.6l-2.2-1.7
			H-100v0.2c0,0.7,0,2.5,0.1,3.3h22.3l2.5,2.1h0.7l2.3-2.1h22.4c0.1-0.7,0.1-2.5,0.1-3.3V76H-72L-74.2,77.7z M-69.4,86.3L-69.4,86.3
			c-0.2,0-0.3,0-0.4-0.1c-0.1-0.1-0.1-0.2-0.2-0.4l-0.8,0.1c0.1,0.4,0.2,0.6,0.4,0.8c0.2,0.2,0.5,0.3,0.8,0.3h0.1
			c0.5,0,0.8-0.2,1.1-0.5c0.3-0.4,0.5-1,0.5-1.8c0-0.8-0.1-1.4-0.4-1.7c-0.3-0.4-0.7-0.5-1.1-0.5c-0.4,0-0.8,0.1-1,0.4
			c-0.3,0.3-0.4,0.7-0.4,1.1c0,0.4,0.1,0.8,0.4,1.1c0.3,0.3,0.6,0.4,0.9,0.4c0.1,0,0.1,0,0.1,0c0.3,0,0.5-0.1,0.7-0.4
			c0,0.5-0.1,0.9-0.2,1C-69.1,86.2-69.2,86.3-69.4,86.3z M-69,84.6c-0.1,0.1-0.3,0.2-0.4,0.2c-0.2,0-0.3-0.1-0.4-0.2
			c-0.1-0.1-0.2-0.3-0.2-0.6c0-0.3,0.1-0.5,0.2-0.6c0.1-0.1,0.2-0.2,0.4-0.2l0,0c0.1,0,0.3,0.1,0.4,0.2c0.1,0.1,0.2,0.4,0.2,0.7
			C-68.8,84.2-68.9,84.4-69,84.6z M-101,85.8c-0.1-0.1-0.3-0.3-0.5-0.3c-0.2-0.1-0.4-0.1-0.7-0.1c-0.1,0-0.2,0-0.4,0.1
			c-0.2,0-0.4,0.1-0.6,0.2c-0.4,0.1-0.7,0.3-0.9,0.4c-0.2,0.2-0.4,0.3-0.5,0.5c-0.1,0.2-0.2,0.4-0.2,0.6c0,0.2,0,0.4,0.1,0.7
			l0.4,1.2l1.6-0.6l2.3-0.8l-0.4-1.2C-100.8,86.2-100.9,86-101,85.8z M-102.6,87.8l-1.2,0.4l-0.1-0.3c-0.1-0.3-0.1-0.4-0.1-0.6
			c0-0.1,0-0.3,0.1-0.4s0.2-0.2,0.3-0.3s0.4-0.2,0.7-0.3c0.1,0,0.2-0.1,0.3-0.1s0.2-0.1,0.3-0.1c0.2,0,0.3,0,0.4,0s0.2,0.1,0.3,0.2
			s0.1,0.2,0.2,0.4l0.2,0.5L-102.6,87.8z M-101.4,84.3l-0.1-0.7l-1-0.1l-0.2-1.4l0.9-0.5l-0.2-0.7l-2,1.1l-1.8,1l0.1,0.7l1.7,0.3
			L-101.4,84.3z M-104,82.8l0.6-0.3l0.2,0.9l-0.8-0.1l-0.8-0.1L-104,82.8z M-92.2,97.1c0-0.1-0.1-0.2-0.1-0.2h-0.2l-0.2-0.1
			l-0.1,0.1V97l-0.3,0.2l-0.4,0.3c-0.1,0.1-0.4,0.3-0.4,0.3c-0.1,0.1-0.3,0.2-0.4,0.2c-0.1,0-0.5-0.2-0.7-0.3
			c-0.1-0.1-0.3-0.2-0.4-0.2s-0.3,0-0.3,0s-0.1-0.1-0.2-0.1s-0.1,0-0.1,0v0.1v0.1c-0.1,0.3,0.1,0.5,0.2,0.6c0.1,0.1,0.2,0.1,0.4,0.2
			c0.2,0.1,0.1,0.1,0,0.2c-0.1,0.1-0.3,0.2-0.3,0.2l-0.3,0.1l-0.5,0.1l-0.2,0.1h-0.2l-0.4,0.1l-0.1,0.1h-0.1c-0.1,0-0.7,0-0.7,0
			s-0.1,0-0.2-0.1s-0.2-0.1-0.2-0.1c0.1,0.3,0.3,0.4,0.3,0.4c0.1,0.1,0.2,0,0.2,0c0.5,0.2,1.1,0.2,1.4,0.1c0.4-0.1,0.9-0.2,0.9-0.2
			h0.1v0.1v0.1v0.1v0l-0.1,0.7l-0.2,0.4c-0.2,0.5-0.2,0.8-0.2,1.1c0,0.2,0.5,0.8,0.7,0.9c0.1,0.1,0.2,0,0.2,0l0.1-0.1v-0.2l-0.1-0.3
			v-0.1l-0.1-0.2l-0.1-0.5c0,0,0-0.6,0-0.7c0-0.1,0.1-0.6,0.1-0.6l0.1-0.1l0.1-0.2v-0.1l-0.1-0.1l-0.1-0.1c-0.1,0-0.1-0.1-0.1-0.1
			c0-0.1,0.9-0.4,1.1-0.5c0.2-0.1,0.3,0,0.3,0s0.1,0.1,0.5,0.4c0.4,0.2,0.7,0,0.7,0l0.1-0.1l-0.1-0.2l-0.2-0.3l-0.1-0.2l-0.1-0.1
			l0,0l-0.1-0.1c-0.1-0.1,0.1-0.2,0.1-0.2c0.4-0.1,1.1-0.7,1.2-0.8C-92.1,97.3-92.2,97.1-92.2,97.1z M-102.2,76.1l-4.1-0.1v0.7
			l4.1,0.1V76.1z M-102.3,77.7h-0.7l0.1,1.7l-3.4,0.2v0.7l4.1-0.3L-102.3,77.7z M-55.5,98.3c0-0.1,0-0.2,0-0.2s-0.1-0.1-0.2-0.1
			c-0.1,0-0.2-0.1-0.2-0.2c0-0.1-0.1-0.1-0.1-0.1l-0.1-0.1c0,0-0.1-0.1-0.1-0.2c0,0-0.1-0.1-0.2-0.1h-0.2h-0.1c0,0,0,0,0,0.1
			s0.1,0.6,0.1,0.6s0.2,0.4,0.4,0.5l0.2,0.1c0,0,0.1,0,0.2-0.1C-55.5,98.5-55.5,98.4-55.5,98.3z M-57.5,104.5c-0.1,0-0.3,0-0.3,0
			h-0.3c0,0-0.4,0-0.5,0.1c-0.1,0-0.4,0.1-0.4,0.1h-0.2h-0.2h-0.3c-0.1,0-0.4-0.1-0.4-0.1c-0.1-0.1-0.6-0.2-0.7-0.2
			c-0.1,0-0.3,0-0.4,0.1c-0.1,0,0-0.1,0-0.1c0-0.1-0.1-0.2-0.1-0.3c0-0.1,0-0.1-0.1-0.4c0-0.3,0.3-0.5,0.4-0.5
			c0.1-0.1,0.2-0.1,0.3-0.2s0.1-0.3,0.1-0.4s0-0.2,0-0.2c0-0.1-0.1,0-0.1,0l-0.2,0.1l-0.1,0.1l-0.3,0.2c0,0-0.1,0.1-0.2,0.2
			l-0.1-0.1l-0.1-0.2l-0.1-0.4c0,0,0-0.1,0-0.3c0-0.1-0.3-0.5-0.3-0.6c-0.1-0.1-0.2-0.2-0.2-0.2l-0.2-0.1h-0.1h-0.1l-0.1,0.1v0.1
			v0.1l0.1,0.1l0.1,0.1c0.2,0.2,0.5,0.9,0.5,0.9c0.1,0.1,0.1,0.3,0.1,0.3v0.2l0.1,0.2c0.1,0,0.1,0.2,0.1,0.2c0,0.1-0.1,0.2-0.1,0.3
			l-0.1,0.2c0,0-0.1,0-0.1,0.1s-0.1,0.1-0.1,0.1c-0.2,0.1-0.2,0.2-0.3,0.2c0,0,0,0.1,0,0.2s0.1,0.2,0.1,0.2s0.1,0,0.3,0.1
			c0.1,0,0.3-0.1,0.3-0.1l0,0c0,0,0,0,0.1-0.1c0,0,0.1-0.1,0.1-0.2l0,0c0,0,0,0,0.1-0.1s0.1,0.1,0.2,0.1c0,0,0,0.2,0,0.3
			c0,0,0,0,0,0.4s-0.1,0.9-0.1,1.1s-0.1,0.4-0.1,0.5s-0.1,0.3-0.1,0.3l-0.1,0.1l-0.1,0.1h0.1h0.1c0,0,0.1,0,0.2-0.1
			c0.1-0.1,0.2-0.3,0.2-0.3v-0.1c0,0,0-0.1,0.1-0.1c0-0.1,0.2-0.4,0.2-0.4v-0.1V106l0.1-0.2v-0.1v-0.1v-0.1v-0.1v-0.1v-0.1v-0.1
			c0,0,0-0.2-0.1-0.2l-0.1-0.4c0,0,0-0.1,0.3,0c0.2,0.1,1.2,0.6,1.5,0.8c0.3,0.1,0.7,0.2,0.9,0.2s0.5-0.2,0.6-0.2l0.1-0.1V105
			l0.1-0.2L-57.5,104.5L-57.5,104.5z M-84.8,101.9C-85,101.9-84.9,101.8-84.8,101.9v-0.2v-0.2v-0.2c0,0,0-0.1-0.1-0.1l-0.1-0.1
			c-0.1-0.1-0.3,0-0.3,0l-0.2,0.3c0,0,0,0.1-0.1,0.2c-0.1,0.1-0.2,0.1-0.3,0.1s-0.3,0-0.4,0h-0.4c0,0-0.2,0-0.3,0s-0.2,0-0.3,0.1
			s-0.1,0.2-0.1,0.2s0,0.1,0,0.2c0,0.1,0.1,0.2,0.1,0.2h0.2c0,0,0.1,0,0.1,0.1s-0.1,0.1-0.1,0.1h-0.1l-0.1,0.1l0.3,0.2l-0.2,0.2
			l-0.1,0.1l-0.2,0.2c0,0-0.2,0.1-0.2,0.2s-0.1,0.2-0.1,0.2v0.1c0,0,0.1,0.2,0.2,0.3c0.1,0.1,0.1,0.1,0.2,0.1h0.1
			c0,0,0.3-0.1,0.4-0.1s0,0.1,0,0.1l-0.1,0.1l-0.1,0.3l-0.1,0.2h-0.1l-0.1,0.1h-0.3h-0.1H-88h-0.1h-0.2h-0.2l-0.1-0.1c0,0,0,0-0.1,0
			l-0.1,0.1v0.1c0.1,0.1,0.3,0.2,0.3,0.2c0.1,0,0.2,0.1,0.2,0.1s0.3,0,0.4,0c0.1,0,0.1,0,0.2,0s0,0,0.1,0.1v0.1l-0.1,0.1l-0.3,0.4
			c0,0.1-0.1,0.1-0.1,0.2c0.1,0.1,0,0.1,0,0.1c-0.1,0.1-0.3-0.1-0.4-0.3c-0.1-0.2-0.8-0.7-0.9-0.7v-0.1v-0.1v-0.1l0-0.4l-0.1-0.3
			v-0.1v-0.1l0.1-0.1c0,0,0.1-0.2,0.2-0.2c0-0.1,0.2-0.2,0.2-0.2c0.2-0.2,0.3-0.1,0.4-0.1s0.2-0.1,0.3-0.2c0.1-0.1-0.1-0.3-0.1-0.4
			c-0.1-0.1-0.3-0.2-0.4-0.2c-0.1,0-0.2,0.2-0.2,0.2c0,0.1,0,0.2,0,0.2c0.1,0.1,0,0.2,0,0.2s-0.2,0.3-0.4,0.4
			c-0.1,0.1-0.2,0.2-0.3,0.2c-0.1,0-0.2,0.2-0.2,0.2c0,0.1-0.1,0.3-0.1,0.3s0,0.2,0,0.3c0,0.2-0.2,0.1-0.2,0.1h-0.1l0,0
			c-0.1,0-0.1,0-0.2,0.1c-0.1,0.1-0.1,0.1-0.1,0.2c0.1,0,0.2,0.1,0.4,0.2c0.2,0,0.5,0.2,0.9,0.4c0.3,0.2,0.5,0.4,0.5,0.4
			c0.1,0,0.3,0.5,0.5,0.7c0.2,0.2,0.4,0.5,0.5,0.6c0.1,0.1,0.3,0.2,0.4,0.2c0.1,0,0.5,0.2,0.5,0.2c0.4,0.2,0.5,0.2,0.7,0
			c0.1-0.1,0-0.3,0-0.3s-0.2-0.2-0.3-0.2c-0.1,0-0.4-0.2-0.4-0.2l-0.5-0.3l-0.2-0.2v-0.1c0,0,0-0.1,0.1-0.1l0.1-0.1
			c0,0,0.2-0.3,0.2-0.4c0,0,0.2-0.4,0.3-0.6c0.1-0.1,0.3-0.1,0.3-0.1s0.2,0.1,0.3,0c0.2-0.1,0.1-0.3,0.1-0.3l-0.1-0.1
			c-0.1,0-0.1-0.1-0.1-0.1h-0.1v-0.1c0-0.1,0.2-0.4,0.2-0.4l0.1-0.2l0.1-0.1c0.1-0.1,0.1-0.1,0.4-0.1c0.3-0.1,0.2-0.1,0.2-0.1
			l-0.2-0.1c0,0,0-0.1,0.1-0.2c0-0.1,0-0.2-0.1-0.3s-0.2,0-0.2,0l-0.1,0.1l-0.1,0.2c-0.1,0.1-0.3,0.1-0.3,0.1h-0.2
			c-0.3,0.1-0.2-0.1-0.2-0.1c0.1-0.2,0.8-0.7,0.9-0.8c0.1,0,0.3-0.2,0.7-0.2c0.4,0.1,0.4,0.1,0.6,0.1c0.3-0.1,0.3-0.1,0.3-0.2
			c0.1-0.1-0.1-0.2-0.1-0.3C-84.5,102-84.8,101.9-84.8,101.9z M-67.4,106.5c-0.1-0.1-0.2-0.1-0.2-0.1s-0.4,0.1-0.6,0.1
			c-0.2,0-0.6,0.1-0.6,0.1s-0.3,0.1-0.4,0.1c-0.1,0,0-0.1,0-0.1c0.2-0.1,0.4-0.4,0.4-0.4c0.4-0.6,0.3-0.8,0.3-0.9s-0.1-0.2-0.4-0.3
			c-0.3-0.1-0.5,0-0.8,0.1c-0.3,0.1-0.7,0.5-0.7,0.6v0.2l0.1,0.1l0.1,0.1c0.1,0.1,0.4,0,0.4,0l0.1-0.1c0.1-0.1,0,0,0.2-0.1
			c0.2-0.1,0.2,0,0.2,0c0,0.5-0.6,1-0.6,1c0,0.1-0.2,0.1-0.2,0.1c-0.6,0.1-0.9,0.3-1.2,0.5s-0.3,0.3-0.3,0.3c0,0.3,0.1,0.4,0.3,0.4
			c0.2,0.1,0.4-0.1,0.4-0.1c0.6-0.5,2.9-0.8,2.9-0.8c0.1,0,0.2,0,0.3,0c0.1,0,0.1-0.2,0.2-0.3c0.1-0.1,0.1-0.2,0.1-0.2
			C-67.2,106.7-67.3,106.6-67.4,106.5z M-77,103.9c-0.2,0.1-0.4,0.2-0.6,0.3c-0.2,0.2-0.2,0.4-0.2,0.4c0,0.1,0.2,0.1,0.2,0.1
			s0.1,0,0.2,0h0.2c0,0,0.2-0.1,0.3-0.2c0.1-0.1,0.5-0.2,0.6-0.2c0.1,0,0.3,0,0.3,0h0.2c0.1,0,0.1,0.2,0.1,0.2
			c0,0.2-0.1,0.5-0.1,0.5s0,0-0.2,0.4s-0.6,0.6-0.7,0.7c-0.1,0.1-0.1,0-0.1,0V106h0.1c0,0,0.1-0.1,0.1-0.2s0.1-0.2,0.2-0.2
			s0.1-0.1,0.1-0.1l0.1-0.1v-0.1v-0.2l-0.1-0.1v-0.1h-0.1l-0.1-0.1c-0.2-0.3-0.3-0.1-0.3-0.1v0.2c0,0.1-0.1,0.2-0.1,0.2
			c-0.1,0-0.5,0.3-0.5,0.3c0,0.1-0.1,0.1-0.1,0.2c0.1,0.1,0.2,0.2,0.2,0.2l0.1,0.1v0.2h-0.1l-0.1,0.1l-0.1,0.1h-0.1h-0.1l-0.1,0.1
			l0,0h-0.1v-0.1v-0.1l0.1-0.1c0-0.1,0.1-0.2,0.1-0.2v-0.2v-0.2c0-0.1-0.1-0.2-0.2-0.2c-0.1,0-0.2,0.1-0.4,0.4
			c-0.1,0.3-0.2,0.6-0.2,0.7s0,0.1,0,0.1l0.1,0.1c0,0.1,0.1,0.2,0.2,0.2c0.1,0,0.1,0,0.2-0.1c0,0,0-0.1,0.1-0.1s0.1,0,0.1,0
			c0,0.2,0.2,0.2,0.2,0.2s0.1-0.1,0.2-0.1c0,0,0,0.1,0,0.2l-0.1,0.1c0,0.1-0.1,0.4-0.1,0.4c0,0.1-0.2,0.2-0.2,0.2h-0.1
			c0,0-0.1,0.1-0.2,0.1c-0.1,0-0.1,0-0.1,0v0.2l0.1,0.1l0.1,0.1c0,0.1,0,0.3-0.1,0.3c0,0.1-0.1,0.1-0.1,0.1s-0.2,0-0.3,0
			c0,0-0.2,0-0.3,0h-0.1h-0.2h-0.1v0.1c0,0,0.1,0.1,0.1,0.2c0,0,0.1,0.1,0.2,0.1c0,0,0,0,0.1,0s0.1,0,0.2,0c0.1,0,0.4,0,0.7,0
			s0.7,0.1,0.8,0.2c0,0.1,0.1,0.1,0.3,0.2c0.2,0,0.4-0.1,0.5-0.2s0.1-0.1,0.1-0.1s0-0.2-0.2-0.3c-0.2-0.1-1.1-0.3-1.2-0.2
			c-0.1,0-0.1-0.2-0.1-0.2c0-0.2,0.1-0.3,0.1-0.3c0.3-0.2,0.5-0.1,0.6-0.1c0.2,0,0.2,0,0.3-0.1c0.1-0.1,0-0.2-0.1-0.3
			c-0.1-0.1-0.3-0.1-0.3-0.1h-0.1h-0.2l-0.1-0.1l0.1-0.4c0-0.1,0.1-0.3,0.1-0.3c0.3-0.2,1.1-0.8,1.3-1.2c0.2-0.3,0.3-0.6,0.3-0.9
			s-0.1-0.5-0.1-0.5C-76.1,103.5-76.8,103.8-77,103.9z M-78.7,106.7C-78.7,106.6-78.8,106.6-78.7,106.7c-0.1,0-0.1,0-0.1,0
			c-0.2,0.3-1.3,1.4-1.4,1.5l0,0c-0.1,0.1-0.1,0.1-0.2,0.1c-0.1-0.1,0-0.4,0.1-0.5c0,0,0-0.1,0.1-0.1c0.2-0.2,0.5-0.6,0.6-0.8
			c0.1-0.2,0.2-0.5,0.2-0.6s0-0.2,0-0.2c0.1-0.3,0.4-0.9,0.6-1.1c0.1-0.1,0.1-0.1,0.1-0.1c0.1-0.1,0.2-0.1,0.3-0.2
			c0.1-0.2,0.1-0.3,0-0.4s-0.2-0.1-0.3-0.1c0,0,0,0-0.1,0l-0.4,0.1c-0.1,0.1-0.4,0.1-0.4,0.1s-0.2,0.1-0.3,0.1
			c-0.1,0.1-0.1,0.2-0.1,0.2v0.1c0,0.1,0.2,0.1,0.2,0.1c0.2,0.2,0.5,0.1,0.6,0s0.1,0,0.1,0s-0.4,1.1-0.5,1c-0.1,0-0.2-0.1-0.4-0.1
			c-0.1,0-0.3,0.1-0.4,0.1c-0.2,0.2-0.3,0.5-0.3,0.6c0,0.2,0.3,0.3,0.5,0.3h0.1c0.1-0.1,0.3-0.2,0.3-0.2l-0.3,0.5l-0.6,1v0.1v0.1
			c0,0.1,0.1,0.1,0.1,0.1c0.1,0,0.1,0,0.1,0c0.1,0,0.3,0,0.4-0.1l0,0c0.1-0.1,0.2-0.3,0.3-0.4c0.2-0.2,0.8-1,1-1.3L-78.7,106.7z
			 M-80.1,106.5L-80.1,106.5c-0.2,0.2-0.3,0.2-0.4,0.1c0,0,0-0.2,0.2-0.3c0.1,0,0.1-0.1,0.1-0.1c0.1-0.1,0.2-0.1,0.3-0.1
			C-79.9,106.2-79.9,106.4-80.1,106.5z M-74.8,39.7c-20.6,0-37.2,16.6-37.2,37.2s16.6,37.2,37.2,37.2c20.5,0,37.2-16.6,37.2-37.2
			S-54.3,39.7-74.8,39.7z M-74.8,111.3L-74.8,111.3c-19,0-34.5-15.4-34.5-34.5c0-19,15.4-34.5,34.5-34.5l0,0
			c19,0,34.5,15.4,34.5,34.5C-40.4,95.9-55.8,111.3-74.8,111.3z"/>
		<g id="XMLID_441_">
			<path id="XMLID_442_" class="st0" d="M-20.8,84.7l-0.4,0.8l-0.3,0.5c-0.4,0.4-2.7,2.8-2.9,3c-0.2,0.2-0.3,0.3-1.3,0.5
				c-1.1,0.2-1.3,0.7-1.3,0.7c2,0.8,3.1,0.1,3.1,0.1c0.5,0,1-0.7,1-0.7c2.5-1.4,5.3-4,6.4-5.8c1.2-1.9,2.6-4.9,2.6-4.9l0.4-0.4
				l0.2,0.2l0.2,0.2l0.2,0.5l0.7,0.7l2.4,3.2l1.3,2.1c1.2,2.6,3,4,4,5s5.7,1.1,6.6,0.7c0.9-0.4,0.7-1,0.7-1l-0.5-0.8l-0.8-0.8
				l-1.4-0.9l-0.8-0.5l-1.1-0.5l-2.9-1.7c0,0-2.5-2.4-2.8-2.7c-0.3-0.3-2.1-2.6-2.1-2.6l-0.3-0.8l-0.5-0.9l-0.6-0.6l-0.7-0.2
				l-0.9,0.1c-0.3,0.3-0.8,0.1-0.8,0.1c-0.4-0.4,2.1-5.5,2.5-6.7c0.4-1.2,1.3-1.3,1.3-1.3s0.9,0.1,3.7-0.8c2.8-0.9,2.9-2.9,2.9-2.9
				l-0.2-0.7l-1.1-0.5l-1.5-0.2h-1.4L-8,64.5h-0.3h-1c-0.7,0.2-0.2-1.2-0.2-1.2c1.2-1.9,1.4-7.3,1.2-8.3c-0.2-0.9-0.9-1.3-1.2-1.5
				c-0.2-0.2-1.2-0.4-1.2-0.4l-0.9,0.9l-1.1,0.7c-0.1,0.1,0,0.7,0,0.7v0.5c0,0-0.2,2-0.2,2.2s-0.2,3.1-0.2,3.1
				c0,1.1-0.4,2.9-0.4,2.9c0,0.8-0.5,2.2-1.1,2.6c-0.5,0.4-3,1.6-3.9,1.9c-0.8,0.2-1.9,0.7-2.3,0.9c-0.4,0.1-1.3,0.9-1.4,1.1
				c-0.1,0.1-0.7,0.4-1.2,0.8c-0.4,0.4-0.3,0.6-0.3,0.6l0.2,0.2l0.7,0.4c1.2,1.7,2.6,1.7,3.4,1.4c0.8-0.3,1.3-0.7,2.3-1.1
				s0.8,0.4,0.8,1.1c0,0.7-0.4,1.9-0.4,1.9c0,0.3-0.7,1.8-0.7,1.8c0,0.3-1.6,2.9-1.6,2.9l-0.6,1l-0.6,1L-20.8,84.7z"/>
		</g>
		<g id="XMLID_439_">
			<path id="XMLID_440_" class="st0" d="M26,77.4l-0.4,0.8L24.2,79l-0.6,0.3l-0.9,0.4c0,0-0.6,0.3-0.6,0.4c-0.1,0.1-0.9,0.5-0.9,0.5
				c0,0.1-0.9,0.4-0.9,0.4h-0.8c0,0-0.3-0.1-0.4,0.1c-0.2,0.2-0.2,0.5-0.2,0.5l0.3,0.2c0.6,0.2,1.9,0.2,1.9,0.2c0.4,0.1,0.9,0,1.1,0
				c0.2,0,1.6-0.8,1.9-0.9c0.3-0.1,0.6-0.2,0.9-0.2c0.4,0,0.3,0.1,0.4,0.2c0.1,0.1,0.2,0.4,0.2,0.4v0.7c0.2,0.2-0.4,2.8-0.4,2.8
				c0,0.4-0.4,1.1,0.1,1.3c0.5,0.2,0.5,0.6,0.5,0.6c-0.3,0.6-2,0.2-3-0.4s-5.8-1.4-6.2-1.4c-0.3,0-0.6-0.6-0.6-0.6l-0.3-0.7
				l-0.5-0.6l-0.8-0.6c-0.1,0-1.1-1.2-1.2-1.3s-0.3-0.5-0.3-0.5l-0.1-0.6v-0.8c0,0,0.1-1,0.3-1.5c0.2-0.5,0.8-1.6,0.8-1.6
				c0.5-1.4,1.4-1.4,1.8-1.8c0.4-0.4,0.8-0.9,0.8-1.9s-1-1.4-1.5-1.5c-0.5-0.1-2.2-0.3-2.7,0.2s-0.2,1.5-0.2,1.5
				c0,0.4,0.5,1.1,0.5,1.1c0.7,0.2,0.4,0.9,0.4,1s-0.5,2-1.1,2.8c-0.6,0.8-0.7,1.4-0.8,1.7c-0.2,0.3-0.2,1.5-0.2,1.5
				c-0.1,0.4,0.2,1.7,0.5,1.8s0.5,0.7,0.9,1.6s-0.6,1.1-0.6,1.1l-0.6,0.1h-0.3c-0.2,0.2-0.6,0.2-0.9,0.8s-0.1,1,0.2,1
				c0.3,0,1.4,0.2,2.3-0.2c1-0.4,3-0.6,5.1-0.3c2.1,0.3,3.4,1.1,3.4,1.1c0.3,0,2.8,1.5,4.2,2.2c1.4,0.7,3.5,1.6,4.2,1.8
				c0.8,0.2,2.2,0.2,2.6,0.2c0.4,0,2.8-0.3,2.8-0.3c2.5-0.1,3.1-0.6,3.4-1.7c0.3-1.1-0.6-1.5-0.6-1.5s-1.7-0.3-2.1-0.3
				c-0.5,0-2.4-0.1-2.7-0.1s-3.5-0.3-3.5-0.3l-1.7-0.2l-0.3-0.2c0,0-0.2-0.4,0.1-0.4s0.6-0.6,0.6-0.6s-0.1-2.2-0.1-2.4
				c0-0.2-0.1-2.6,0-3.5s1-1.1,1-1.1c0.2-0.2,1.1,0.2,1.8-0.8s-0.1-2-0.1-2s-0.6-0.2-0.9-0.2s-0.9,0.1-0.9,0.1s-0.2,0.2-0.5,0.2
				s-0.1-0.4-0.1-0.4c0-0.3,0.2-2.6,0.2-2.6l0.2-1.2l0.4-1.1c0.2-0.6,0.5-0.9,1.7-1.7c1.1-0.8,0.7-1.1,0.6-1.2
				c-0.1-0.1-1.4-0.2-1.5-0.2s-0.2-0.8-0.2-1.2c0-0.5-0.7-1.2-1.3-1.4c-0.7-0.2-0.8,0.3-0.8,0.3s-0.1,0.7-0.1,1
				c0,0.3-0.2,1.4-0.2,1.4c0,0.9-1.1,1.5-1.1,1.5l-0.8,0.6c-1.2,0.9-1.4,0.3-1.4,0.3c-0.2-1.2,2.5-5.8,2.8-6.3s1-1.9,3.2-2.6
				s2.2-0.2,3.4-1.2s1-1.4,1-2c0-0.6-1-0.9-1.4-1.3c-0.4-0.4-2.3-0.1-2.3-0.1c-0.8,0.3-0.7-0.3-0.7-0.3s0-0.6,0-0.7
				c0-0.1-0.3-1.1-0.3-1.1L29,54.5c0,0-0.4-0.4-0.6-0.4c-0.2,0-0.8,0-0.8,0c-0.9,0-1.2,0.7-1.2,0.7c0,0.1-0.1,1.8-0.2,1.9
				c-0.1,0.1-0.1,0.4-0.2,1.5c-0.1,1-0.6,1.1-0.9,1.4c-0.3,0.3-1.7,0.7-1.8,0.9c-0.1,0.1-1.9,1-1.9,1s-1,0.5-1.3,0.7
				c-0.2,0.2-1,0.7-1.1,1.1c-0.1,0.5,0.1,1,0.1,1s0.2,0.6,0.6,1c0.4,0.4,1,0.4,1.1,0.4s1-0.5,1.1-0.5c0.1-0.1,0.6-0.2,0.9,0
				c0.3,0.3,0,0.7,0,0.7l-0.3,0.3l-0.2,0.5l-0.5,0.8L21.1,69l-0.4,0.9l-0.5,1.3c0,0-0.5,1.1-0.5,1.5s0.3,1.4,0.3,1.4
				s0.2,0.2,0.4,0.4c0.2,0.2,1.2,0.8,1.8,0.8c0.7,0,0.9-0.1,1.1-0.1c0.2,0,0.5-0.3,0.5-0.3s1.1-1.2,1.8-1.5c0.7-0.3,0.4,0.5,0.4,0.5
				s-0.2,0.6-0.2,0.7c0,0.1-0.1,1.6-0.1,1.6L26,77.4l-0.2,0.3"/>
		</g>
		<g id="XMLID_437_">
			<path id="XMLID_438_" class="st0" d="M58.1,76c-0.3,0.3-6.3,9.7-6.5,10c-0.2,0.4-0.7,0.6-0.9,0.4c-0.5-0.5-0.1-2.1,0.1-2.7
				c0.4-1,2.4-4.3,2.7-5.4c0.5-1.4,0.3-2.9,0.3-3.4c-0.1-0.4-0.4-1-0.4-1c0.2-1.6,1.3-5.5,2-6.9c0.7-1.4,1.3-1.5,2-2.5
				c0.6-1,0.2-1.6-0.3-2.1s-1.8,0-1.9,0.1c-0.1,0.1-2.1,1-2.1,1c-0.3,0.3-2.2,0.8-2.3,0.9s-1.1,0.5-1.7,1c-0.6,0.6-0.6,1.3-0.6,1.3
				l0.2,0.3c0.1,0.3,1.1,0.7,1.1,0.7c1.2,0.7,2.7,0,3.1-0.4c0.4-0.4,0.6,0.1,0.6,0.1s-1.1,6.4-1.8,6c-0.7-0.3-3.2-0.2-4,1.1
				c-0.9,1.3-1,2.9-0.7,3.8s1.9,1.7,2.9,1.2c1.1-0.4,2-1.7,2-1.7l-3.3,9c0,0-0.1,0.4-0.1,0.8c0,0.3,0.2,0.6,0.3,0.7
				c0.2,0.3,0.5,0.5,0.8,0.6s0.6,0.1,0.6,0.1c0.8,0.1,1.5-0.4,2-1.1c0.5-0.8,0.9-1.8,1.5-2.7c1-1.8,4.8-9.1,4.8-9.1
				C58.5,75.5,58.1,76,58.1,76z M50.7,76.6c-0.9,0.9-1.4,2-2.3,1.1c0,0-0.2-1.1,0.7-2s1.6-1.2,2.1-1C51.7,74.8,51.6,75.7,50.7,76.6z
				"/>
		</g>
		<path id="XMLID_436_" class="st0" d="M62.7,79.5c0,0-0.4,0.5-1.1,0.5s-0.5,0.3-0.6,0.4c-0.1,0.1,0.3,0.9,0.3,0.9
			c0,0.2,0.8,0.7,0.9,0.7c0.2,0,0.4,0.5,0.4,0.5c0.2,0.4,0,1.5,0,1.9c0,0.3-0.2,0.8-0.2,0.8c-0.1,0.1-1.3,0.3-1.4,0.4
			c-0.1,0.1-1.9,0.5-1.9,0.5L58,86.4c-0.1,0.1-0.4,0-0.5,0.3c-0.1,0.3,0.1,0.6,0.1,0.6c0,0.2,0.7,0.7,0.9,0.9c0.2,0.2,0.9,0.5,1,0.5
			c0.2,0,1,0,1.3-0.1s2.3-0.5,4-0.9s4.1-0.1,4.4,0.2c0.3,0.3,0.6,0.7,1.6,0.6c1.1-0.2,1.9-1.1,2.5-1.7s0.4-0.9,0.4-0.9
			s-0.1-0.9-1.4-1.3c-1.3-0.4-6.3-0.3-6.8-0.2s-0.6-1.2-0.6-1.2c-0.3-1,0.3-2,0.3-2c1.2-1.6,2.6-1.1,3.4-1.4c0.9-0.3,1.3-0.3,1.5-1
			c0.2-0.7-0.1-1.3-0.7-1.5c-0.6-0.2-1.7,0-1.7,0l-0.5,0.2l-0.8,0.1l-0.7-0.2l0.2-2.2c0-0.5,0.2-1.5,0.2-1.5
			c1.5-1.5,5.3-5.8,6.2-7.9c0.9-2.2,1-3.6,1-5.1s-1-2.4-1-2.4c-2.6-2.6-6.2,0-7.2,0.6c-1,0.6-2,1.4-3.1,2.5
			c-1.1,1.1-0.8,2.3-0.8,2.3c0,0.3,1,0.1,1,0.1s0.7-0.3,0.8-0.3s0.9-0.3,0.9-0.4c0-0.2,0.8-0.8,1.5-1.5c0.6-0.6,2.4-1.4,2.9-1.6
			s1.5-0.4,1.7-0.4c0.1,0,0.9,0,1.2,0s0.9,0.9,0.9,0.9c0.2,1.3-0.2,2.6-0.2,2.6s0.2,0-0.7,2.2c-0.9,2.2-2.8,3.9-3.2,4.3
			c-0.3,0.3-0.6,0-0.8,0c-0.1,0,0-0.8,0-0.8l0.3-0.3c0-0.2,0.6-0.6,0.6-1c0-0.4,0.6-1.1,0.9-1.1c0.3,0,0.6-0.5,0.6-0.5l0.3-0.6
			l-0.3-0.4l-0.3-0.8l-0.6-0.2l-0.3-0.3l-0.6-0.1l-0.5-0.6c-1.5-1.2-1.5-0.5-1.5-0.5s0,0.9,0.1,1.2c0.1,0.3-0.2,1-0.2,1
			c-0.4,0.2-2.3,1.9-2.4,2.2c-0.1,0.4-0.4,0.9-0.1,1.3c0.3,0.3,1.4,0.7,1.4,0.7s0.4,0.6,0.5,0.7s0,0.9,0,0.9l-0.3,0.3l-0.5,0.6
			l-0.4,0.4l-0.5,0.2l-0.6,0.2l-0.4,0.4l-0.2,0.2l-0.4-0.2l-0.1-0.4v-0.7c0,0,0.2-0.5,0.2-0.8c0-0.3,0.1-1.4,0.1-1.4l-0.1-0.9
			l-0.1-0.9c0-0.7-1-1.2-1.4-1c-0.4,0.1-1.3,0.6-1.8,2.3c-0.5,1.7-0.6,3.7-0.6,4.2c0,0.6,0.1,0.8,0.4,0.8c0.2,0,0.6,0.3,0.6,0.3
			c0.1,0.4,0.9,0.9,1.2,1s0.7-0.3,0.9-0.4c0.2-0.2,0.2-0.3,0.5-0.5c0.3-0.2,0.5,0.1,0.5,0.1c0.1,0.8,1,0.7,1.3,0.7
			c0.2,0,0.7-0.8,0.9-0.8c0.3,0,0.2,0.7,0.2,0.9c0,0.2-0.1,0.8-0.1,0.8c0,0.6-0.3,2.3-0.3,2.3c0,0.3-0.8,1.2-0.8,1.2L62.7,79.5z"/>
		<g id="XMLID_434_">
			<path id="XMLID_435_" class="st0" d="M90.2,73c0,0,0.1-0.9,0.3-1.1c0.1-0.1,2.5-2.1,4.1-2.7s3-1,4.3-0.3c1.4,0.7,1.9,1.7,1.9,2
				c0,0.3,0.5,1.7-2.4,4.6c0,0-1.4,1.5-2.5,2c0,0-0.8,0.5-0.2,0.7c0.6,0.2,2.1,0,2.2-0.1c0.1-0.1,1.9-0.3,3.3-0.1
				c1.3,0.2,3.3,0.1,3.5,0c0,0,0.6,0,1,0.5c0.5,0.5,1.2,1,1.2,1.2c0,0.2-0.1,0.7-0.7,1.2c-0.6,0.6-1,1.5-1.5,1.6s-1.4,0-1.7,0
				S89.7,82.6,86.3,85c0,0-1.1,0.7-2.1,0.1c-1-0.6-1.5-1.1-1.3-2.6c0,0-0.1-0.6,1.6-1.6c1.7-1,3.9-1.8,7.1-2c0,0,0.8,0.1,1-0.4
				c0,0,3.5-2.6,3.9-5.2c0,0,0.1-0.9-1.1-0.2c-1.2,0.7-0.9,0.4-1.2,0.7c-0.3,0.3-0.6,0.5-0.7,0.6c-0.1,0.1-1.7,0.5-2.3-0.1
				c0,0-0.6-0.5-0.6-0.6C90.6,73.7,90.1,73.2,90.2,73z"/>
		</g>
		<g id="XMLID_431_">
			<path id="XMLID_433_" class="st0" d="M127,69.3c0.6-0.3,1.6-0.3,1.6-0.3l1.8-0.1l0.9,0.1l1.1,0.1c0,0,0.5,0.1,0.5,0.3
				c0,0.3-0.1,0.8-0.4,1.1c-0.3,0.3-0.9,1.3-1.5,1.5c-0.5,0.2-1.4,0.2-1.9,0.2c-0.6,0-2.7,0.1-3.4,1.4c-0.7,1.3-0.7,1.6-0.8,2
				s-0.1,1.3-0.5,1.7c0,0-0.6,0.4,0,0.5s1.6,0.5,1.9,0.7c0.2,0.2,2.4,2.5,2.6,3.1c0,0,1.2,1.3,1.6,1.4l1.2,0.8l1.1,0.7l1,0.7
				c0,0,1.4,0.8,1.9,0.8c0.4,0,2.4,1.1,2.4,1.1l1.8,0.9c0,0,1.3,0.7,1.5,0.9c0,0,0.2,0.4,0,0.4s-1.8,0.1-1.8,0.1s-0.8,0.5-0.8,0.6
				c0,0.2-0.7,0.9-0.7,0.9s-0.6,0.4-0.8,0.4s-2.4,0.3-3.5-0.5c-1.1-0.8-3-2-3.9-3.5s-4.1-6.8-4.8-8c-0.8-1.3-1.2-1-1.2-1
				s-0.8,1.9-0.8,2s-0.4,1.2-0.4,1.2l-0.3,0.4l-0.3,0.3l-0.3,0.4c0,0-0.3,0.3-0.3,0.4c0,0.1-0.4,0.5-0.4,0.5l-0.3,0.5l-0.2,0.4
				l-0.9,0.6l-0.5,0.4l-0.3,0.3c0,0-1.4,1.1-1.8,1.4c-0.4,0.2-0.7,0.5-0.7,0.5l-0.3,0.2c0,0-1.1,0.5-1.9,0.6
				c-0.7,0.1-1.1-0.3-1.3-0.3c0,0-0.3-0.2-0.4-0.2c-0.1,0-0.6-0.1-0.6-0.3c0-0.2,0.4-0.4,0.6-0.4c0.1,0,0.8-0.1,0.8-0.1
				c0.1-0.1,1.2-0.8,1.4-1c0.2-0.2,1.3-1.1,1.9-1.9c0.6-0.9,2.5-2.8,3.4-4.8s0.8-1.8,1-2c0.2-0.2,0.7-1,0.7-1.4
				c0-0.3,0.3-1.3-0.3-1.1c-0.6,0.1-0.9,0.3-1.2,0.6c-0.3,0.3-0.8,0.5-1,0.5s-1.1,0.2-1.7-0.4c-0.6-0.6-1.2-1.1-1.2-1.3
				c0,0-0.2-0.6,0.2-0.9c0.3-0.3,0.5-0.8,0.6-0.8c0.1-0.1,0.4-0.4,1.8-0.3c0,0,0.8,0,1-0.2c0.2-0.2,0.7-0.2,0.7-0.2s1.2-0.3,1.2-0.4
				c0.1-0.1,0.9-0.4,1.4-0.9c0,0,0.4-0.6,0.2-1c-0.1-0.3,0.1-1.3,0.2-1.5c0.2-0.2,0.5-0.8,0.5-1c0-0.2,0.4-1.4,0.4-2
				c0,0,0.7-4.2,0.3-5.6l-0.3-0.9c0,0,0-0.6,0.1-0.8c0.1-0.1,0.4-0.5,0.4-0.5l0.3-0.2l0.8-0.1c0,0,0.6,0.2,0.7,0.3
				c0.1,0.1,0.3,0.3,0.3,0.3l0.8,0.8c0,0,0.4,0.6,0.4,1.3c0,0.8,0,3.3-0.2,3.9c-0.2,0.7-0.6,1.3-0.6,1.3l-0.6,2.1l-0.2,1L127,69.3z"
				/>
			<path id="XMLID_432_" class="st0" d="M119.4,76.2c0,0,0.3,0.1,1.7-1C122.6,74.2,119.4,76.2,119.4,76.2z"/>
		</g>
		<g id="XMLID_424_">
			<path id="XMLID_430_" class="st0" d="M154.2,58.3c0,0-0.2-0.1-0.7,0.4s-1.9,2.8-1.9,3.2c0,0-0.5,2.3-0.3,3.8c0,0,0.4,1.2,0.7,1.2
				c0,0,0.4,0.5,1.4,0.5s1.2-0.4,1.5-1c0.2-0.5,0.4-0.8,0.4-0.8s0.2-0.9-0.2-1.3c-0.5-0.5-0.4-1.2-0.1-1.5s0.3-0.8,0.3-0.8
				s0.1-0.7-0.1-1c0,0,0.2-0.8,0.2-1s-0.1-0.9-0.3-1c-0.2-0.2-0.7-0.6-0.7-0.6L154.2,58.3z"/>
			<path id="XMLID_429_" class="st0" d="M158.3,57.2c0,0-0.6,0.7-0.8,1.3c-0.2,0.6-0.4,1.5-0.4,1.7s-0.1,1.6,0.1,1.9
				c0.3,0.3,0.5,0.7,0.7,0.7s0.7,0.7,0.7,0.7l0.4,0.3h0.9c0,0,0.8,0.3,0.8,0.4s1,0.9,1,0.9s0.3,0,0.5-0.2c0.2-0.2,1-1.5,1.5-1.7
				s1-0.4,1.5-0.4h0.7c0,0,0.7-0.3,0.8-0.4c0.1-0.1,1.9-1.2,2.3-1.9c0,0,1.5-1.2,1.5-1.5c0,0,0.3-0.3,0.5-0.5
				c0.1-0.1,0.1-1.2,0.1-1.4c0-0.2-0.2-0.6-0.2-0.6l-0.5-1.2l-0.5-0.5c0,0-0.8-0.6-1.2-0.6c-0.3,0-1,0.1-1.2,0.1s-0.9,0.3-0.9,0.7
				c0,0.4-0.6,2-0.8,2.2c-0.2,0.2-1.4,2.4-2.5,3.2c0,0-0.4,0.8-0.5,0.8s-0.6,0.5-1-0.2c0,0-0.2-0.5,0-1v-1l-0.4-0.6
				c0,0-0.7-0.8-0.8-0.8s-0.4-0.5-0.6-0.5C159.7,57.2,158.8,56.8,158.3,57.2z"/>
			<path id="XMLID_428_" class="st0" d="M149.9,71.9c0,0-1.5,0.5-1.8,0.8c-0.4,0.4-2.1,2.1-2.4,4.6s0.6,2.4,1.1,2.4s2,0.4,2.5-0.6
				c0,0,0.2-1.6,0.2-2.4c0-0.8,0.3-2.8,0.3-3c0-0.2,0.3-0.9,0.3-1s0.2-0.9,0.2-0.9h-0.4V71.9z"/>
			<path id="XMLID_427_" class="st0" d="M151.1,72.3l0.7-0.3c0,0,1.1-0.7,1.3-1c0.3-0.3,6.1-3.4,8.9-4c2.8-0.6,7.9-1.6,10.2,1
				c0,0,0.5,0.6,0.5,1.3c0,0.7-0.2,1.5-0.3,1.6c-0.1,0.1-0.7,0.9-1.1,1.3s-0.9,0.4-1,0.4s-1.8,0.2-1.8,0.2s-1,0.2-1.2,0.2
				s-1.1,0.3-1.1,0.3s0.4-0.5,0.7-0.7c0.3-0.3,1.4-0.9,1.4-0.9l0.4-0.4l0.5-0.5l0.5-0.7l0.2-0.8c0,0,0.2-0.6-0.8-1.1
				c-1.1-0.4-2.6-0.3-2.9-0.3s-2.6,0.1-7.2,1.8c-4.6,1.8-4.4,2.2-5.7,2.5C152,72.9,151.4,73,151.1,72.3z"/>
			<path id="XMLID_426_" class="st0" d="M159.8,88.4"/>
			<path id="XMLID_425_" class="st0" d="M159,89.2c0,0-0.4,0.5-0.6,0.7c-0.2,0.2-1.6,1.1-1.7,1.3c-0.2,0.2-0.3,0.3-0.8,0.6
				c-0.5,0.3-0.8,0-1,0s-0.2-0.3-0.4-0.4c-0.1-0.1-0.4-0.8-0.4-0.8l-0.2-0.5l-0.2,0.2c-0.2,0.7,0,1.6,0,1.6c0,0.2,1,1.1,1,1.1
				c0.3,0.3,1.1,0.5,2.6,0.1s1.9-1.1,2.6-1.7c0.7-0.7,1.7-2.3,1.7-2.3c1.4-1.8,1.9-4.6,1.9-4.6l0.3-0.2c0.2,0,0.4-0.1,1.8-0.1
				s1.3,0.3,1.6,0.3c0.3,0,1.2,0.1,1.7,0.1c0.4,0,1.7-0.6,2.2-1.2c0.6-0.6,0-1-0.2-1.2c-0.2-0.2-1.7-0.9-2.2-1s-2.8-0.1-4.6-0.1
				c-1.8,0-1.6-2.2-1.6-2.8s1-1.2,1.1-1.4c0.2-0.2,0.8-1,1.6-1.8c0.8-0.8-0.4-1.6-0.4-1.6l-0.6-0.4c0,0-0.7-0.2-1-0.2
				s-1.4,0.1-1.4,0.1s-1.2,0.3-1.3,0.4c-0.1,0.1-1.4,0.6-1.4,0.6v0.3c0.3,1,0.8,0.7,1.5,1c0.6,0.4,0.4,0.4,0.4,0.9s-0.9,1.5-1.1,1.7
				c-0.2,0.2-0.7,0.5-0.7,1.1s0.2,0.8,0.9,1.5c0.7,0.7,0.2,1,0.2,1c0,0.2-0.3,0.4-0.3,0.4c-0.7,0-3.5,0.6-4,0.8
				c-0.6,0.1-2.5,0.5-2.7,0.7c-0.2,0.2-1.8,0.6-1.9,0.7s-1,0.5-1.6,0.5s-0.7,0.2-0.7,0.2c0,0.3,0.4,0.3,0.9,0.9
				c0.5,0.5,2.2,0.3,3.1,0.1c0.8-0.3,2.3-0.6,3.1-0.8c0.8-0.2,2.7-0.4,3.3-0.6c0.6-0.2,0.9,0,0.9,0c0.3,0.3,0.2,0.9,0.2,0.9
				c0,0.3-0.6,2.2-0.6,2.2L159,89.2z"/>
		</g>
		<g id="XMLID_395_">
			<path id="XMLID_423_" class="st0" d="M-26.4,100.4h2.2c0.6,0,1,0.1,1.3,0.2s0.5,0.3,0.8,0.6c0.2,0.3,0.4,0.7,0.6,1.2
				s0.2,1.1,0.2,1.8c0,0.6-0.1,1.2-0.2,1.7s-0.3,0.8-0.5,1.1s-0.5,0.5-0.8,0.6s-0.7,0.2-1.2,0.2h-2.3L-26.4,100.4L-26.4,100.4z
				 M-25.2,101.7v4.9h0.9c0.4,0,0.7,0,0.9-0.1s0.3-0.2,0.4-0.3c0.1-0.1,0.2-0.4,0.3-0.7s0.1-0.7,0.1-1.3c0-0.5,0-1-0.1-1.3
				c-0.1-0.3-0.2-0.6-0.4-0.7c-0.2-0.2-0.4-0.3-0.6-0.4c-0.2,0-0.5-0.1-1-0.1H-25.2z"/>
			<path id="XMLID_422_" class="st0" d="M-13.8,107.8h-1.3l-0.5-1.7H-18l-0.5,1.7h-1.3l2.4-7.4h1.3L-13.8,107.8z M-16.1,104.9
				l-0.8-2.7l-0.8,2.7H-16.1z"/>
			<path id="XMLID_421_" class="st0" d="M-12.1,107.8v-7.3h1.2v6.1h3v1.2H-12.1z"/>
			<path id="XMLID_420_" class="st0" d="M-6,107.8v-7.4h1.2v7.4H-6z"/>
			<path id="XMLID_419_" class="st0" d="M2.9,107.8H1.6l-0.5-1.7h-2.4l-0.5,1.7h-1.3l2.4-7.4h1.3L2.9,107.8z M0.6,104.9l-0.8-2.7
				l-0.8,2.7H0.6z"/>
			<path id="XMLID_418_" class="st0" d="M4.5,107.8v-7.4h1.2l2.5,4.9v-4.9h1.1v7.4H8.1L5.7,103v4.8H4.5z"/>
			<path id="XMLID_417_" class="st0" d="M18.4,100.4h1.2v4c0,0.6,0,1,0,1.2c0.1,0.3,0.2,0.6,0.4,0.8c0.2,0.2,0.5,0.3,0.8,0.3
				s0.5-0.1,0.7-0.2s0.3-0.3,0.4-0.5s0.1-0.7,0.1-1.4v-4.1h1.2v3.9c0,1-0.1,1.7-0.2,2.1c-0.1,0.4-0.3,0.8-0.7,1.1
				c-0.4,0.3-0.9,0.4-1.5,0.4s-1.1-0.1-1.5-0.3c-0.4-0.2-0.6-0.5-0.8-1c-0.2-0.4-0.2-1.2-0.2-2.3v-4H18.4z"/>
			<path id="XMLID_416_" class="st0" d="M25.5,107.8v-7.4h1.2l2.5,4.9v-4.9h1.1v7.4h-1.2l-2.4-4.8v4.8H25.5z"/>
			<path id="XMLID_415_" class="st0" d="M32.6,107.8v-7.4h1.2v7.4H32.6z"/>
			<path id="XMLID_414_" class="st0" d="M37.6,107.8l-2.2-7.4h1.3l1.5,5.5l1.5-5.5H41l-2.2,7.4H37.6z"/>
			<path id="XMLID_413_" class="st0" d="M42.7,107.8v-7.4h4.5v1.3h-3.3v1.6h3v1.2h-3v2h3.4v1.2h-4.6V107.8z"/>
			<path id="XMLID_412_" class="st0" d="M49.3,107.8v-7.4h2.6c0.7,0,1.1,0.1,1.4,0.2c0.3,0.1,0.5,0.4,0.7,0.7
				c0.2,0.3,0.3,0.7,0.3,1.2c0,0.6-0.1,1-0.4,1.4c-0.3,0.4-0.7,0.6-1.2,0.7c0.3,0.2,0.5,0.4,0.6,0.6c0.2,0.2,0.4,0.6,0.7,1.2
				l0.7,1.4h-1.5l-0.9-1.6c-0.3-0.6-0.5-0.9-0.6-1.1s-0.2-0.2-0.4-0.3c-0.1-0.1-0.3-0.1-0.6-0.1h-0.3v3.1
				C50.4,107.8,49.3,107.8,49.3,107.8z M50.5,103.5h0.9c0.6,0,0.9,0,1.1-0.1c0.2,0,0.3-0.1,0.4-0.3c0.1-0.2,0.1-0.3,0.1-0.6
				c0-0.2,0-0.4-0.1-0.6s-0.2-0.2-0.4-0.3c-0.1,0-0.4-0.1-1-0.1h-1V103.5z"/>
			<path id="XMLID_411_" class="st0" d="M56.1,105.4l1.2-0.1c0.1,0.9,0.6,1.4,1.3,1.4c0.4,0,0.7-0.1,0.9-0.3s0.3-0.4,0.3-0.7
				c0-0.2,0-0.3-0.1-0.4s-0.2-0.2-0.3-0.3c-0.2-0.1-0.5-0.2-1.1-0.4c-0.5-0.2-0.9-0.3-1.1-0.5c-0.2-0.2-0.4-0.4-0.6-0.7
				c-0.1-0.3-0.2-0.6-0.2-1s0.1-0.8,0.3-1.1c0.2-0.3,0.4-0.6,0.8-0.7c0.3-0.2,0.7-0.2,1.2-0.2c0.7,0,1.3,0.2,1.7,0.6
				s0.6,0.9,0.6,1.7l-1.2,0.1c-0.1-0.4-0.2-0.7-0.3-0.8c-0.2-0.2-0.4-0.2-0.8-0.2c-0.3,0-0.6,0.1-0.8,0.2c-0.2,0.1-0.3,0.3-0.3,0.5
				c0,0.2,0.1,0.4,0.2,0.5s0.5,0.3,1.1,0.5c0.6,0.2,1.1,0.4,1.3,0.6c0.3,0.2,0.5,0.4,0.6,0.8s0.2,0.7,0.2,1.1c0,0.6-0.2,1.2-0.6,1.6
				c-0.4,0.4-1,0.7-1.8,0.7C57.1,107.9,56.3,107.1,56.1,105.4z"/>
			<path id="XMLID_410_" class="st0" d="M63.1,107.8v-7.4h1.2v7.4H63.1z"/>
			<path id="XMLID_409_" class="st0" d="M67.8,107.8v-6.1H66v-1.2h4.8v1.2H69v6.1H67.8z"/>
			<path id="XMLID_408_" class="st0" d="M74.2,107.8v-3.1l-2.2-4.3h1.4l1.4,2.9l1.4-2.9h1.4l-2.2,4.3v3.1H74.2z"/>
			<path id="XMLID_407_" class="st0" d="M85.7,104.2c0-0.9,0.1-1.6,0.4-2.2c0.3-0.6,0.6-1,1-1.3c0.4-0.3,0.9-0.4,1.5-0.4
				c0.9,0,1.6,0.3,2.1,1c0.5,0.7,0.8,1.6,0.8,2.8c0,1.2-0.3,2.2-0.9,2.9c-0.5,0.6-1.2,0.9-2.1,0.9c-0.9,0-1.6-0.3-2.1-0.9
				C86,106.3,85.7,105.4,85.7,104.2z M86.9,104.1c0,0.8,0.2,1.5,0.5,1.9s0.7,0.6,1.2,0.6s0.9-0.2,1.2-0.6s0.5-1.1,0.5-1.9
				c0-0.9-0.2-1.5-0.5-1.9s-0.7-0.6-1.2-0.6s-0.9,0.2-1.2,0.6C87.1,102.6,86.9,103.2,86.9,104.1z"/>
			<path id="XMLID_406_" class="st0" d="M93.5,107.8v-7.4h4.1v1.3h-2.9v1.7h2.5v1.3h-2.5v3.1H93.5z"/>
			<path id="XMLID_405_" class="st0" d="M107.8,107.8v-6.1H106v-1.2h4.8v1.2H109v6.1H107.8z"/>
			<path id="XMLID_404_" class="st0" d="M112.6,107.8v-7.4h4.5v1.3h-3.3v1.6h3v1.2h-3v2h3.4v1.2h-4.6V107.8z"/>
			<path id="XMLID_403_" class="st0" d="M123.1,105.1l1.2,0.5c-0.2,0.8-0.5,1.4-0.9,1.8s-1,0.6-1.6,0.6c-0.8,0-1.4-0.3-1.9-0.9
				c-0.6-0.7-0.8-1.6-0.8-2.8c0-1.3,0.3-2.2,0.9-2.9c0.5-0.6,1.2-0.9,2-0.9c0.7,0,1.2,0.2,1.7,0.7c0.3,0.3,0.6,0.8,0.7,1.5l-1.2,0.4
				c-0.1-0.4-0.2-0.7-0.5-0.9c-0.2-0.2-0.5-0.3-0.8-0.3c-0.4,0-0.8,0.2-1.1,0.6c-0.3,0.4-0.4,1-0.4,1.9s0.1,1.6,0.4,2
				c0.3,0.4,0.6,0.6,1.1,0.6c0.3,0,0.6-0.1,0.8-0.4C122.9,106,123,105.6,123.1,105.1z"/>
			<path id="XMLID_402_" class="st0" d="M126.4,107.8v-7.4h1.2v2.9h2.4v-2.9h1.2v7.4H130v-3.2h-2.4v3.2H126.4z"/>
			<path id="XMLID_401_" class="st0" d="M133.5,107.8v-7.4h1.2l2.5,4.9v-4.9h1.1v7.4h-1.2l-2.4-4.8v4.8H133.5z"/>
			<path id="XMLID_400_" class="st0" d="M140.4,104.2c0-0.9,0.1-1.6,0.4-2.2c0.3-0.6,0.6-1,1-1.3c0.4-0.3,0.9-0.4,1.5-0.4
				c0.9,0,1.6,0.3,2.1,1c0.5,0.7,0.8,1.6,0.8,2.8c0,1.2-0.3,2.2-0.9,2.9c-0.5,0.6-1.2,0.9-2.1,0.9s-1.6-0.3-2.1-0.9
				C140.7,106.3,140.4,105.4,140.4,104.2z M141.6,104.1c0,0.8,0.2,1.5,0.5,1.9s0.7,0.6,1.2,0.6s0.9-0.2,1.2-0.6s0.5-1.1,0.5-1.9
				c0-0.9-0.2-1.5-0.5-1.9s-0.7-0.6-1.2-0.6s-0.9,0.2-1.2,0.6C141.8,102.6,141.6,103.2,141.6,104.1z"/>
			<path id="XMLID_399_" class="st0" d="M148.3,107.8v-7.3h1.2v6.1h3v1.2H148.3z"/>
			<path id="XMLID_398_" class="st0" d="M154.2,104.2c0-0.9,0.1-1.6,0.4-2.2s0.6-1,1-1.3c0.4-0.3,0.9-0.4,1.5-0.4
				c0.9,0,1.6,0.3,2.1,1c0.5,0.7,0.8,1.6,0.8,2.8c0,1.2-0.3,2.2-0.9,2.9c-0.5,0.6-1.2,0.9-2.1,0.9s-1.6-0.3-2.1-0.9
				C154.5,106.3,154.2,105.4,154.2,104.2z M155.4,104.1c0,0.8,0.2,1.5,0.5,1.9s0.7,0.6,1.2,0.6s0.9-0.2,1.2-0.6
				c0.3-0.4,0.5-1.1,0.5-1.9c0-0.9-0.2-1.5-0.5-1.9s-0.7-0.6-1.2-0.6s-0.9,0.2-1.2,0.6C155.6,102.6,155.4,103.2,155.4,104.1z"/>
			<path id="XMLID_397_" class="st0" d="M164.8,105.1v-1.2h2.6v2.9c-0.3,0.3-0.6,0.6-1.1,0.8s-1,0.3-1.5,0.3c-0.6,0-1.1-0.1-1.6-0.4
				s-0.8-0.7-1.1-1.3c-0.3-0.6-0.4-1.3-0.4-2.1s0.1-1.5,0.4-2.1s0.6-1,1-1.3c0.4-0.3,0.9-0.4,1.5-0.4c0.7,0,1.3,0.2,1.7,0.5
				c0.4,0.4,0.7,0.9,0.8,1.6l-1.2,0.3c-0.1-0.4-0.3-0.7-0.5-0.9c-0.2-0.2-0.5-0.3-0.9-0.3c-0.5,0-0.9,0.2-1.3,0.6
				c-0.3,0.4-0.5,1-0.5,1.8c0,0.9,0.2,1.6,0.5,2s0.7,0.6,1.2,0.6c0.2,0,0.5-0.1,0.7-0.2c0.3-0.1,0.5-0.3,0.7-0.5v-0.9h-1V105.1z"/>
			<path id="XMLID_396_" class="st0" d="M171.2,107.8v-3.1l-2.2-4.3h1.4l1.4,2.9l1.4-2.9h1.4l-2.2,4.3v3.1H171.2z"/>
		</g>
	</g>
</g>
</svg>
